<?xml version="1.0" encoding="UTF-8"?>
<svg version="1.1" xmlns="http://www.w3.org/2000/svg" width="523" height="501">
<path d="M0 0 C172.59 0 345.18 0 523 0 C523 165.33 523 330.66 523 501 C350.41 501 177.82 501 0 501 C0 335.67 0 170.34 0 0 Z " fill="#A0C0A2" transform="translate(0,0)"/>
<path d="M0 0 C0.80147461 0.25201172 1.60294922 0.50402344 2.42871094 0.76367188 C7.34878024 2.34295338 11.97835894 4.24559152 16.625 6.5 C17.86665941 7.09485357 19.10884522 7.68860962 20.3515625 8.28125 C21.26325195 8.71679199 21.26325195 8.71679199 22.19335938 9.16113281 C23.92580906 9.96555134 25.68535046 10.71082809 27.4453125 11.453125 C44.31093819 18.79245222 59.00244538 28.70044934 73.0859375 40.41943359 C74.86558359 41.88900359 76.66119132 43.33451882 78.46875 44.76953125 C79.4690625 45.56746094 80.469375 46.36539063 81.5 47.1875 C82.3765625 47.88230469 83.253125 48.57710937 84.15625 49.29296875 C84.7646875 49.85628906 85.373125 50.41960937 86 51 C86 51.66 86 52.32 86 53 C86.55429687 53.22042969 87.10859375 53.44085938 87.6796875 53.66796875 C102.00369423 61.89100965 112.79452125 82.1648724 121 96 C121.38542969 96.64839844 121.77085937 97.29679687 122.16796875 97.96484375 C142.47184003 132.40519879 154.601934 171.20223766 154.1875 211.4375 C154.17725259 212.81730088 154.16708085 214.19710232 154.15698242 215.5769043 C154.12354214 219.38494863 154.06369494 223.19233837 154 227 C153.99129883 227.84272461 153.98259766 228.68544922 153.97363281 229.55371094 C153.70929288 249.10575113 148.87648111 268.78583248 142 287 C141.43589862 288.54806806 140.87210332 290.09624767 140.30859375 291.64453125 C130.92183986 316.98982204 130.92183986 316.98982204 125 321 C121.01278184 320.7151987 117.43891439 319.0952195 113.75 317.625 C110.12723507 316.18473004 106.51599071 314.83581327 102.80078125 313.66015625 C97.15434309 311.79984484 91.82232862 309.31700129 86.4375 306.8125 C84.85412842 306.08220581 84.85412842 306.08220581 83.23876953 305.3371582 C77.23249074 302.55189632 71.27784883 299.68517339 65.375 296.6875 C43.06908778 285.41510314 17.15031064 273.7393377 -8.37109375 278.6484375 C-11.0559231 279.58194429 -13.47782069 280.6904814 -16 282 C-17.07636719 282.49757813 -18.15273438 282.99515625 -19.26171875 283.5078125 C-29.81814355 288.68371063 -37.45311496 296.02050628 -42 307 C-46.45911737 321.91606163 -45.24621969 339.06341662 -38.046875 352.91015625 C-31.73900576 364.26290815 -23.65765664 373.53174579 -13 381 C-12.45037598 381.38687988 -11.90075195 381.77375977 -11.33447266 382.17236328 C-3.19379525 387.86448612 4.99420938 392.76593426 14 397 C15.2717731 397.68576001 16.5426963 398.37310014 17.8125 399.0625 C23.87534068 402.12623826 30.54348579 403.94871163 37 406 C37 407.32 37 408.64 37 410 C16.30762676 419.47280723 -5.35591769 427.85179696 -28 431 C-30.29051012 431.33886147 -32.5808592 431.67881231 -34.87109375 432.01953125 C-61.59676189 435.94559979 -84.2275942 436.62030666 -111 432 C-112.38783691 431.76772705 -112.38783691 431.76772705 -113.80371094 431.53076172 C-127.27496642 429.24161161 -140.07478144 425.3973922 -153 421 C-153 420.01 -153 419.02 -153 418 C-153.928125 418.103125 -154.85625 418.20625 -155.8125 418.3125 C-160.45651629 418.32186294 -164.0246485 416.37608847 -168.1328125 414.37890625 C-172.33248847 412.35917107 -176.65800806 410.68593613 -181 409 C-180 407 -180 407 -176.52734375 405.7734375 C-174.99835955 405.30414029 -173.46833355 404.8382291 -171.9375 404.375 C-162.76037388 401.47197524 -154.48238439 397.50026955 -146 393 C-145.03964844 392.54109375 -144.07929688 392.0821875 -143.08984375 391.609375 C-123.29379068 381.29840931 -105.06405511 366.6896067 -97.9375 344.875 C-97.24884885 342.59583428 -96.59704194 340.30485959 -96 338 C-95.80277344 337.24074219 -95.60554687 336.48148437 -95.40234375 335.69921875 C-93.6014565 323.61753829 -93.47606897 310.63036478 -100 300 C-100.50789062 299.17242187 -101.01578125 298.34484375 -101.5390625 297.4921875 C-108.80341192 287.06044402 -121.83009682 281.57506891 -134 279 C-146.77611245 278.07733026 -159.07822564 278.01482888 -171 283 C-171.98871094 283.350625 -172.97742188 283.70125 -173.99609375 284.0625 C-182.25208526 287.03094639 -190.0870681 290.82360381 -197.98828125 294.609375 C-215.19798915 302.84432568 -232.73894571 310.72207124 -250.90625 316.6171875 C-254.59640395 317.82141635 -257.81988965 319.38635124 -261.17578125 321.328125 C-263.5525374 322.20350414 -264.67983791 321.97266509 -267 321 C-268.93329428 318.36857167 -270.44467314 315.85765389 -272 313 C-272.86431641 311.49759766 -272.86431641 311.49759766 -273.74609375 309.96484375 C-285.43663717 288.80123935 -291.47959511 264.87927413 -294 241 C-294.09877441 240.13826172 -294.19754883 239.27652344 -294.29931641 238.38867188 C-295.1553792 230.23250704 -295.24327286 222.06809159 -295.25 213.875 C-295.25067474 213.13144257 -295.25134949 212.38788513 -295.25204468 211.62179565 C-295.22274144 191.14157375 -292.96031979 171.62931984 -287 152 C-286.52983255 150.38935659 -286.05978226 148.77867897 -285.58984375 147.16796875 C-282.4824901 136.74002469 -278.65901264 126.82853137 -274 117 C-273.16662109 115.22882813 -273.16662109 115.22882813 -272.31640625 113.421875 C-263.4673318 95.1923729 -252.2833279 79.24749316 -239 64 C-238.17757812 63.05253906 -237.35515625 62.10507813 -236.5078125 61.12890625 C-232.59882781 56.70003975 -228.77820487 52.49624747 -224 49 C-223.34 49 -222.68 49 -222 49 C-221.67 48.01 -221.34 47.02 -221 46 C-218.53220345 43.45302281 -215.72494272 41.2664187 -213 39 C-212.13375 38.25878906 -211.2675 37.51757812 -210.375 36.75390625 C-205.28287851 32.46466187 -200.19997182 28.71021841 -194.41796875 25.41015625 C-191.19965673 23.53324084 -188.15931305 21.42826351 -185.10546875 19.296875 C-182.80565438 17.88029175 -180.50893183 16.9999366 -178 16 C-175.54901799 14.70726481 -173.11541079 13.39678472 -170.6875 12.0625 C-165.53948418 9.2730082 -160.54499742 6.91206808 -155 5 C-153.51673036 4.32139743 -152.03774695 3.6333712 -150.5625 2.9375 C-146.87020498 1.26777614 -143.37059678 0.32854971 -139.40625 -0.4453125 C-136.73871812 -1.06023056 -134.26102064 -1.94246022 -131.6875 -2.875 C-126.27373858 -4.71636853 -120.84140903 -6.02977206 -115.25 -7.1875 C-114.47744873 -7.35427246 -113.70489746 -7.52104492 -112.90893555 -7.69287109 C-76.24206507 -14.97163575 -35.22078138 -11.36664678 0 0 Z " fill="#F8F9F2" transform="translate(334,39)"/>
<path d="M0 0 C3.27517171 1.65422048 6.5623195 3.28454602 9.84790039 4.91796875 C13.04952322 6.51299297 16.23614232 8.12417128 19.40234375 9.7890625 C26.38947423 13.42801987 33.46308497 16.48456593 40.8125 19.3125 C41.68414795 19.65023437 42.5557959 19.98796875 43.45385742 20.3359375 C48.91805358 22.39079555 54.27390914 23.85941365 60 25 C58.66466761 29.85050468 56.68888163 33.07826688 53.5625 37 C53.12365479 37.55397461 52.68480957 38.10794922 52.23266602 38.67871094 C51.3015831 39.85388012 50.36751271 41.02668773 49.43066406 42.19726562 C48.00290514 43.99633932 46.6036579 45.81433107 45.2109375 47.640625 C39.8957156 54.58202053 34.44129895 61.05141235 28 67 C27.08734375 67.84884766 27.08734375 67.84884766 26.15625 68.71484375 C19.73557119 74.49617531 12.88473793 79.78777052 6 85 C4.9996875 85.76957031 3.999375 86.53914063 2.96875 87.33203125 C2.0509375 87.98558594 1.133125 88.63914062 0.1875 89.3125 C-0.60269531 89.88613281 -1.39289063 90.45976562 -2.20703125 91.05078125 C-6.4721277 92.50031753 -9.76945826 91.21321756 -14 90 C-15.51687995 89.62611082 -17.03380707 89.25241293 -18.55078125 88.87890625 C-31.50820421 85.39307779 -42.56586382 79.95596077 -54 73 C-54.60312012 72.64147949 -55.20624023 72.28295898 -55.82763672 71.91357422 C-71.58327742 62.48274484 -84.64983344 49.48288534 -91 32 C-91.629929 29.0926354 -91.92760271 26.91037108 -92 24 C-92.05027344 22.84113281 -92.10054688 21.68226563 -92.15234375 20.48828125 C-92.43944979 8.94661831 -91.39501123 1.53665549 -83.31640625 -6.98828125 C-59.20024822 -27.93233081 -24.14549798 -12.74345727 0 0 Z " fill="#F3F7EF" transform="translate(393,345)"/>
<path d="M0 0 C5.95183734 4.73441606 10.24721705 8.81087658 12.75 16.1875 C13.141875 17.26 13.53375 18.3325 13.9375 19.4375 C16.50397027 31.2827474 13.8454368 43.5632281 8.140625 54.18359375 C6.46286111 56.65021451 4.68132105 58.91535759 2.75 61.1875 C2.17765625 61.93 1.6053125 62.6725 1.015625 63.4375 C-7.15124666 73.48903436 -18.76467732 80.50183778 -30.25 86.1875 C-30.9212793 86.5263623 -31.59255859 86.86522461 -32.28417969 87.21435547 C-41.82743131 92.01095272 -51.33606408 96.1798667 -61.55102539 99.3359375 C-64.82333331 100.34705859 -67.37665308 101.27193539 -70.25 103.1875 C-73.6269076 102.83902729 -75.91802187 101.25393698 -78.6640625 99.34375 C-79.50300049 98.76109375 -80.34193848 98.1784375 -81.20629883 97.578125 C-82.08697021 96.95421875 -82.9676416 96.3303125 -83.875 95.6875 C-85.22597778 94.73617187 -85.22597778 94.73617187 -86.60424805 93.765625 C-92.91563313 89.26737028 -98.65369276 84.54969877 -104.25 79.1875 C-105.47249798 78.15868997 -106.70123516 77.13722558 -107.9375 76.125 C-111.7994642 72.82623892 -114.97629156 69.05810641 -118.25 65.1875 C-119.19133345 64.10687372 -120.13415949 63.02754659 -121.078125 61.94921875 C-137.1318223 43.54203311 -137.1318223 43.54203311 -139.25 37.1875 C-118.925262 28.93768577 -118.925262 28.93768577 -108.68359375 25.48828125 C-99.87766198 22.15224566 -91.42444631 17.87860713 -82.9375 13.8125 C-81.92985596 13.33208252 -80.92221191 12.85166504 -79.8840332 12.35668945 C-75.6545246 10.33346752 -71.43163959 8.31071857 -67.28125 6.12890625 C-46.56903482 -4.73532811 -21.6898792 -12.09627879 0 0 Z " fill="#F3F8EF" transform="translate(213.25,334.8125)"/>
<path d="M0 0 C4.32060365 2.74947505 7.35712515 6.11530258 9 11 C10.56627404 22.07466489 7.17538168 31.80983509 0.734375 40.75390625 C-0.12414062 41.86572266 -0.12414062 41.86572266 -1 43 C-1.61359375 43.81339844 -2.2271875 44.62679687 -2.859375 45.46484375 C-11.08202267 55.49585566 -22.38400146 62.34817203 -35.18359375 64.546875 C-47.4361301 65.31173921 -55.40721286 59.33701816 -64.54296875 51.94140625 C-72.75208096 44.303915 -80.05765235 33.0439573 -81.37890625 21.765625 C-81.61788024 15.07435341 -81.30442107 9.34718223 -77 4 C-73.53782231 0.36588572 -69.98292613 -2.3273897 -64.875 -2.8125 C-56.15567135 -2.16270601 -47.241393 3.30076758 -41.3125 9.4375 C-40.73113281 10.11683594 -40.14976562 10.79617188 -39.55078125 11.49609375 C-38.00110425 13.34808704 -38.00110425 13.34808704 -35 13 C-33.69728688 11.45602733 -33.69728688 11.45602733 -32.5 9.4375 C-24.67569299 -1.63872302 -12.24741239 -5.99451408 0 0 Z " fill="#94F1A7" transform="translate(301,263)"/>
<path d="M0 0 C5.43870032 3.83908258 8.71559374 8.30764421 12 14 C12.62648437 15.02287109 12.62648437 15.02287109 13.265625 16.06640625 C18.76580882 26.89247228 17.35627256 43.21928379 13.90625 54.51171875 C13.6071875 55.33285156 13.308125 56.15398437 13 57 C12.58234375 58.15435547 12.58234375 58.15435547 12.15625 59.33203125 C2.07043462 84.15530962 -21.34980728 100.25882541 -45 111 C-50.58829775 113.29854025 -56.26870575 115.3510545 -61.98486328 117.30761719 C-63.74696146 117.91305824 -65.4976564 118.55148358 -67.24609375 119.1953125 C-71.09942804 120.32125131 -73.63729139 120.73486381 -77.23828125 118.79296875 C-77.92277344 118.26316406 -78.60726562 117.73335938 -79.3125 117.1875 C-80.00988281 116.66542969 -80.70726562 116.14335937 -81.42578125 115.60546875 C-83 114 -83 114 -83 111 C-77.52729783 107.97391763 -72.09573428 105.62278769 -66.125 103.75 C-52.39741773 99.39613586 -38.69392736 93.46434499 -27 85 C-25.93394531 84.25105469 -24.86789063 83.50210938 -23.76953125 82.73046875 C-9.0696209 72.13034603 -0.83322411 59.73111871 3 42 C4.0298203 33.42193641 3.03858577 24.61118718 -1.78125 17.296875 C-7.8320137 9.974574 -15.65140247 5.00124881 -25 3 C-50.40722187 0.80841929 -70.47989376 11.03139014 -92.51293945 22.29272461 C-99.55569927 25.87204411 -106.67956243 29.03569712 -114 32 C-115.95948283 32.83062684 -117.91795283 33.66365064 -119.875 34.5 C-142.77089905 44 -142.77089905 44 -152 44 C-153.75 41.75 -153.75 41.75 -155 39 C-154.09594273 34.86716677 -150.36385032 32.29288088 -147 30 C-143.25789252 27.97090085 -139.72779466 26.5350263 -135.625 25.4375 C-117.76407652 20.0772002 -100.77026425 11.63869866 -83.91796875 3.76171875 C-66.91805703 -4.17990668 -66.91805703 -4.17990668 -59.625 -6.75 C-58.48289062 -7.15734375 -57.34078125 -7.5646875 -56.1640625 -7.984375 C-37.58897804 -13.94674779 -16.12298626 -10.7486575 0 0 Z " fill="#487A5F" transform="translate(224,327)"/>
<path d="M0 0 C2.14319009 0.81963652 4.30244095 1.57242549 6.47265625 2.31738281 C22.76931347 7.99301467 38.35505505 15.33454602 53.73828125 23.11816406 C62.46575508 27.5129228 70.89087897 31.74246808 80.44921875 34.02441406 C84.92828091 35.33024336 88.95874325 37.54115656 93.03515625 39.77832031 C92.35136079 43.72840091 91.24672442 46.41289049 89.03515625 49.77832031 C82.11531157 49.2825494 76.40568998 47.76431675 69.97265625 45.21582031 C69.05653564 44.85939453 68.14041504 44.50296875 67.1965332 44.13574219 C59.55041152 41.10314256 52.22846526 37.59838614 44.95019531 33.77832031 C39.02661962 30.68513239 33.02677745 27.73689809 27.03515625 24.77832031 C26.34808594 24.43768555 25.66101563 24.09705078 24.953125 23.74609375 C3.80432975 13.31883524 -17.90437728 4.19098644 -41.5625 11.59082031 C-49.79883709 14.5722998 -55.68537469 19.01187646 -59.96484375 26.77832031 C-63.77536759 38.10062951 -63.3056446 51.96730014 -58.58984375 62.99316406 C-50.09019374 79.85473828 -35.95768885 90.59867869 -19.86474609 99.69189453 C-18.06148322 100.72305873 -16.28862436 101.79386189 -14.515625 102.87597656 C-4.07260438 109.04839248 7.16949864 112.07212861 18.84301758 115.14916992 C21.03515625 115.77832031 21.03515625 115.77832031 23.03515625 116.77832031 C23.03515625 117.43832031 23.03515625 118.09832031 23.03515625 118.77832031 C22.04515625 118.77832031 21.05515625 118.77832031 20.03515625 118.77832031 C20.03515625 119.43832031 20.03515625 120.09832031 20.03515625 120.77832031 C18.71515625 121.10832031 17.39515625 121.43832031 16.03515625 121.77832031 C16.03515625 122.43832031 16.03515625 123.09832031 16.03515625 123.77832031 C15.37515625 123.77832031 14.71515625 123.77832031 14.03515625 123.77832031 C13.37515625 125.09832031 12.71515625 126.41832031 12.03515625 127.77832031 C-20.51373144 117.05836139 -53.54683864 100.79372555 -70.265625 69.33300781 C-76.00428758 57.32798954 -77.23705616 41.26505746 -73.90234375 28.27832031 C-68.43303988 13.67655092 -58.59866117 5.62631839 -44.90478516 -0.69702148 C-30.61800914 -7.07359595 -14.33692135 -5.55092531 0 0 Z " fill="#47785D" transform="translate(363.96484375,320.2216796875)"/>
<path d="M0 0 C5.57024292 3.88928204 9.27317174 9.14322902 10.640625 15.84375 C11.63612401 23.46553933 9.96117251 30.9648664 6.640625 37.84375 C1.52479458 44.05392327 -4.57853209 48.98987337 -12.66015625 50.18359375 C-21.11206 50.72251763 -27.62298309 47.16843248 -34.171875 42.09375 C-39.80235764 36.78348439 -42.53069187 31.75934176 -42.95141602 23.90551758 C-43.06198618 16.77906581 -42.4690421 11.13899823 -37.359375 5.84375 C-36.75480469 5.20953125 -36.15023437 4.5753125 -35.52734375 3.921875 C-25.14122291 -5.9930806 -12.53986079 -6.95929447 0 0 Z " fill="#274139" transform="translate(189.359375,171.15625)"/>
<path d="M0 0 C5.52390169 4.208687 9.17571821 10.18554788 10.40234375 17.04296875 C10.73030899 25.09950614 8.20543959 33.601036 2.9921875 39.75 C-3.87154402 45.8347883 -8.5683363 49.27185154 -17.8984375 49.1484375 C-26.84997918 48.00138065 -33.96910367 42.8731334 -39.515625 35.96875 C-44.10423917 29.14588914 -43.8522518 20.49458358 -42.4453125 12.625 C-40.68283795 6.45008917 -35.87254356 2.19611796 -30.9453125 -1.625 C-20.36685546 -7.4769124 -10.10378679 -6.29029527 0 0 Z " fill="#254038" transform="translate(371.0078125,172.25)"/>
<path d="M0 0 C2.79882352 2.40392778 4.92471302 4.95988662 7 8 C7.9590625 9.36125 7.9590625 9.36125 8.9375 10.75 C11.34195062 18.10479014 10.99892053 24.89092969 7.5 31.8125 C3.40750724 38.50140916 -2.4341051 44.47803503 -10 47 C-18.56496927 47.81822511 -26.38087664 47.44982772 -33.1875 41.875 C-38.28601741 37.07757614 -42.64156161 31.29538462 -43.23828125 24.14453125 C-43.43590893 15.27208874 -42.42888101 9.97028327 -36.625 3.25 C-25.02469838 -6.69311567 -13.14783262 -7.58880464 0 0 Z " fill="#ACD8B9" transform="translate(137,213)"/>
<path d="M0 0 C5.95475441 4.71047737 9.97498334 10.58104324 11.28515625 18.140625 C11.68193906 26.38346796 8.66716739 32.67045442 3.46875 38.90625 C-1.96003963 44.75443111 -7.04959416 47.70400693 -15.15625 48.09375 C-22.71719314 48.01788769 -27.56342058 45.5896436 -33.15625 40.59375 C-38.7964311 34.13464691 -42.72771922 26.29278152 -42.15625 17.59375 C-41.203125 14.05078125 -41.203125 14.05078125 -39.90625 10.40625 C-39.48859375 9.19582031 -39.0709375 7.98539063 -38.640625 6.73828125 C-37.14175655 3.56304677 -36.19471307 2.26490469 -33.15625 0.59375 C-32.49625 0.59375 -31.83625 0.59375 -31.15625 0.59375 C-30.82625 -0.39625 -30.49625 -1.38625 -30.15625 -2.40625 C-20.6127669 -6.43572064 -8.68338175 -5.66307505 0 0 Z " fill="#AED7BA" transform="translate(422.15625,212.40625)"/>
<path d="M0 0 C4.14883293 0.74678993 5.39251482 2.40963248 8.125 5.5625 C12.85590009 10.65938655 12.85590009 10.65938655 19.23828125 12.828125 C24.15525528 12.7931909 28.53573209 12.5293291 33.125 10.5625 C34.40087495 8.2484613 34.40087495 8.2484613 35.125 5.5625 C36.8125 2.6875 36.8125 2.6875 39.125 0.5625 C42.6428705 0.5625 45.00816408 0.91401463 48.0625 2.6875 C49.80778491 5.76741454 49.53653719 8.09382938 49.125 11.5625 C46.09576652 18.17173668 39.66626563 22.52117862 33.15234375 25.44921875 C25.57378941 27.71795795 15.41020671 28.05212792 8.10546875 24.8125 C2.6539539 21.37170168 -3.50456303 16.73577704 -5.875 10.5625 C-6.22076946 7.2431132 -6.18400217 5.21483792 -4.75 2.1875 C-2.875 0.5625 -2.875 0.5625 0 0 Z " fill="#243F38" transform="translate(242.875,186.4375)"/>
<path d="M0 0 C9.05019898 1.44007047 18.37886804 6.12686591 25.01953125 12.48046875 C26.24928853 14.93998331 26.03421636 16.26303499 25.76953125 18.98046875 C25.7025 19.77453125 25.63546875 20.56859375 25.56640625 21.38671875 C25.01953125 23.48046875 25.01953125 23.48046875 22.01953125 25.48046875 C17.02875006 26.05632812 14.23934998 25.31940405 10.0390625 22.6171875 C7.5926024 21.24016644 5.12031928 20.42592621 2.45703125 19.54296875 C-3.14014367 17.58241984 -6.89255466 15.3853927 -10.41796875 10.48046875 C-11.17861757 7.7759396 -10.86495032 6.13391345 -9.98046875 3.48046875 C-7.05583249 -0.21099287 -4.49676698 -0.13826077 0 0 Z " fill="#38614C" transform="translate(352.98046875,114.51953125)"/>
<path d="M0 0 C3.0625 2.125 3.0625 2.125 5 5 C5.16876751 9.05042021 4.34901139 10.58312529 1.75 13.6875 C-2.57416913 17.32373313 -6.75507152 19.37574022 -12.02734375 21.23828125 C-14.22798811 22.03386135 -14.22798811 22.03386135 -17 23.6875 C-21.0900037 25.47687662 -23.54765209 25.50268444 -28 25 C-31.09035015 22.9912724 -31.80554217 21.72921685 -32.75 18.1875 C-31.53012117 13.00301498 -28.32372907 10.88849122 -24 8 C-21.37799381 6.42946893 -18.7101923 4.97479177 -16 3.5625 C-15.33613281 3.20816895 -14.67226562 2.85383789 -13.98828125 2.48876953 C-9.10082683 0.06784724 -5.45128858 -0.5249389 0 0 Z " fill="#335643" transform="translate(180,116)"/>
<path d="M0 0 C12.82813274 5.24219911 12.82813274 5.24219911 16 10 C13.72871455 8.86435728 11.48006794 7.7164007 9.25 6.5 C3.69674869 3.93696093 -0.57038595 2.26137952 -6.625 4.0625 C-10.92158995 5.76478218 -13.87777053 7.56554758 -17 11 C-18.0127038 14.33635192 -18.0127038 14.33635192 -18 18 C-18.0825 19.258125 -18.165 20.51625 -18.25 21.8125 C-18.11813252 30.31795276 -14.72776306 38.92275915 -9 45.1875 C-8.34 45.785625 -7.68 46.38375 -7 47 C-6.401875 47.61875 -5.80375 48.2375 -5.1875 48.875 C-3.30079534 50.70779881 -1.39724399 52.49611147 0.5625 54.25 C1.14128906 54.77078125 1.72007812 55.2915625 2.31640625 55.828125 C4.06849377 57.28564382 4.06849377 57.28564382 7 57 C7 57.99 7 58.98 7 60 C8.65 60.66 10.3 61.32 12 62 C12 62.66 12 63.32 12 64 C-2.67901537 58.71977864 -12.23845038 46.60363821 -18.6875 33.00390625 C-21.65941285 26.20211761 -22.22521547 18.83843054 -20.38671875 11.578125 C-16.73635199 3.28037501 -9.12078981 -2.29030172 0 0 Z " fill="#99D3A7" transform="translate(241,261)"/>
<path d="M0 0 C9.74955206 4.59698434 9.74955206 4.59698434 12.375 8.53515625 C10.10371455 7.39951353 7.85506794 6.25155695 5.625 5.03515625 C0.07174869 2.47211718 -4.19538595 0.79653577 -10.25 2.59765625 C-16.01889476 4.84553593 -20.16919736 8.35145229 -23.625 13.53515625 C-23.23506749 8.07610108 -21.42023957 5.41665127 -17.625 1.53515625 C-12.08116176 -3.08470895 -6.32752689 -2.55692089 0 0 Z " fill="#7FD795" transform="translate(244.625,262.46484375)"/>
<path d="M0 0 C0 0.66 0 1.32 0 2 C-0.71414063 1.85175781 -1.42828125 1.70351563 -2.1640625 1.55078125 C-3.09992188 1.36902344 -4.03578125 1.18726563 -5 1 C-5.85335938 0.82855469 -6.70671875 0.65710938 -7.5859375 0.48046875 C-14.28805573 -0.22353527 -18.00653033 1.25609733 -23.19775391 5.29418945 C-26.20305501 7.79217171 -29.12097241 10.35695828 -32 13 C-32 8.9887927 -30.68821296 7.91633086 -28 5 C-25.30859375 3.015625 -25.30859375 3.015625 -22.4375 1.25 C-21.48746094 0.65703125 -20.53742188 0.0640625 -19.55859375 -0.546875 C-12.59526259 -4.50162186 -6.82673498 -3.34370693 0 0 Z " fill="#89D69C" transform="translate(300,263)"/>
<path d="M0 0 C11.97103239 -1.21601909 23.51063454 3.89539654 33 11 C35.6614615 13.43535504 38.22702937 15.8380957 40 19 C39.67578125 21.2421875 39.67578125 21.2421875 39 23 C38.8453125 22.0409375 38.8453125 22.0409375 38.6875 21.0625 C38.460625 20.381875 38.23375 19.70125 38 19 C37.01 18.67 36.02 18.34 35 18 C32.3125 15.5625 32.3125 15.5625 30 13 C30 12.34 30 11.68 30 11 C29.40445313 10.88269531 28.80890625 10.76539063 28.1953125 10.64453125 C26 10 26 10 22.875 7.6875 C16.21608845 3.29925177 7.70105112 2.47274375 0 1 C0 0.67 0 0.34 0 0 Z " fill="#395E4D" transform="translate(194,318)"/>
<path d="M0 0 C-3 2 -3 2 -5.125 2.5 C-5.74375 2.665 -6.3625 2.83 -7 3 C-7.33 3.66 -7.66 4.32 -8 5 C-8 4.34 -8 3.68 -8 3 C-9.299375 3.6496875 -9.299375 3.6496875 -10.625 4.3125 C-15.54198892 6.45164363 -20.7510278 7.31635619 -25.98828125 8.3515625 C-28.90508052 8.84881748 -28.90508052 8.84881748 -31 10 C-33.32914823 10.36141955 -35.66253478 10.69699525 -38 11 C-37.67 10.01 -37.34 9.02 -37 8 C-34.06016911 7.20455193 -31.23933181 6.59173636 -28.25 6.0625 C-21.17968262 4.7108412 -14.47943953 3.07210327 -7.6640625 0.734375 C-4.97825506 -0.00599421 -2.77044542 -0.14104086 0 0 Z " fill="#729A82" transform="translate(340,462)"/>
<path d="M0 0 C0 3 0 3 -1.19921875 4.51171875 C-3.2867664 6.23700217 -5.44733634 7.49367602 -7.8125 8.8125 C-11.11654162 10.72865205 -13.74551456 12.54730511 -16.3125 15.375 C-19 18 -19 18 -21.875 18.375 C-22.57625 18.25125 -23.2775 18.1275 -24 18 C-23.34 17.67 -22.68 17.34 -22 17 C-22 16.34 -22 15.68 -22 15 C-20.68 14.67 -19.36 14.34 -18 14 C-18 13.34 -18 12.68 -18 12 C-17.01 12 -16.02 12 -15 12 C-14.67 11.01 -14.34 10.02 -14 9 C-11.67131912 7.33336683 -9.3725297 5.80493756 -6.9375 4.3125 C-5.94266602 3.68891602 -5.94266602 3.68891602 -4.92773438 3.05273438 C-3.28986556 2.02759346 -1.64553023 1.01279732 0 0 Z " fill="#73A285" transform="translate(402,427)"/>
<path d="M0 0 C0.33 0 0.66 0 1 0 C1.77826334 12.38735817 -1.09577958 22.28910062 -9 32 C-9.99 32.495 -9.99 32.495 -11 33 C-10.73207441 29.15973315 -10.5147547 27.47411617 -7.625 24.8125 C-4.28061046 21.2292255 -3.65842667 18.02618111 -2.578125 13.328125 C-2 11 -2 11 -1 10 C-0.76712992 8.31816052 -0.58735834 6.6287584 -0.4375 4.9375 C-0.35371094 4.01839844 -0.26992188 3.09929687 -0.18359375 2.15234375 C-0.12300781 1.44207031 -0.06242187 0.73179687 0 0 Z " fill="#A3E3BD" transform="translate(309,274)"/>
<path d="M0 0 C0 0.33 0 0.66 0 1 C-7.36224072 3.29189755 -14.73705395 5.54240853 -22.125 7.75 C-22.85904053 7.97260498 -23.59308105 8.19520996 -24.34936523 8.42456055 C-27.33408071 9.31076203 -29.86853055 10 -33 10 C-33 9.34 -33 8.68 -33 8 C-32.2265625 7.81824219 -31.453125 7.63648438 -30.65625 7.44921875 C-23.82070938 5.79955239 -17.37328194 3.8637538 -10.91015625 1.109375 C-6.88546797 -0.53947308 -4.31446248 -1.48309648 0 0 Z " fill="#D8EDDE" transform="translate(348,458)"/>
<path d="M0 0 C0.33 0.99 0.66 1.98 1 3 C-0.98 3 -2.96 3 -5 3 C-5.33 2.34 -5.66 1.68 -6 1 C-5.67 0.34 -5.34 -0.32 -5 -1 C-5.99 -0.67 -6.98 -0.34 -8 0 C-10.1875 -0.4375 -10.1875 -0.4375 -12 -1 C-12 -1.66 -12 -2.32 -12 -3 C-18.93 -1.515 -18.93 -1.515 -26 0 C-26 -0.66 -26 -1.32 -26 -2 C-16.84836858 -5.11544899 -8.54627467 -5.07011136 0 0 Z " fill="#9AC5A9" transform="translate(135,212)"/>
<path d="M0 0 C13.2 0 26.4 0 40 0 C40 0.33 40 0.66 40 1 C38.906875 1.12375 37.81375 1.2475 36.6875 1.375 C32.92618198 1.75464801 32.92618198 1.75464801 30 4 C30 3.34 30 2.68 30 2 C29.23816406 2.0721875 28.47632813 2.144375 27.69140625 2.21875 C22.7398019 2.66383803 17.84928232 3.06491722 12.875 3 C9.2049729 2.71117455 9.2049729 2.71117455 7 4 C6.67 3.34 6.34 2.68 6 2 C2.97065509 1.34227572 2.97065509 1.34227572 0 1 C0 0.67 0 0.34 0 0 Z " fill="#648C76" transform="translate(241,474)"/>
<path d="M0 0 C0 0.99 0 1.98 0 3 C-0.99 3.66 -1.98 4.32 -3 5 C-2.34 7.31 -1.68 9.62 -1 12 C2.465 11.505 2.465 11.505 6 11 C5.34 11.66 4.68 12.32 4 13 C3.01 13 2.02 13 1 13 C0.67 13.66 0.34 14.32 0 15 C-3.0109362 12.9927092 -3.63016497 12.16115776 -5 9 C-5.33 9 -5.66 9 -6 9 C-6.33 6.36 -6.66 3.72 -7 1 C-3.535 0.505 -3.535 0.505 0 0 Z " fill="#7CAC8B" transform="translate(73,359)"/>
<path d="M0 0 C6.31764408 0.48794812 11.21846254 2.67409982 16.875 5.4375 C17.74125 5.84548828 18.6075 6.25347656 19.5 6.67382812 C25.8660674 9.7321348 25.8660674 9.7321348 27 12 C21.91782738 11.59877585 18.18100533 9.7254906 13.74609375 7.41015625 C9.24501025 5.09878905 4.61869325 3.06348463 0 1 C0 0.67 0 0.34 0 0 Z " fill="#3F6654" transform="translate(404,339)"/>
<path d="M0 0 C6.39245977 -0.77150377 10.72313892 0.43176116 16.4375 3.3125 C17.05254395 3.6206665 17.66758789 3.92883301 18.30126953 4.24633789 C21.4451445 5.90912366 22.9894074 6.9841111 25 10 C22.69885433 8.84942716 20.40617525 7.69017839 18.125 6.5 C12.10611574 3.61093555 6.58840362 2.55635408 0 2 C0 1.34 0 0.68 0 0 Z " fill="#7EC99B" transform="translate(232,261)"/>
<path d="M0 0 C0 3.72273389 -0.76640112 4.06308684 -3.3125 6.625 C-7.08123595 10.72941283 -8.69619526 14.63577476 -10 20 C-10.33 20 -10.66 20 -11 20 C-10.78958504 9.07755075 -10.78958504 9.07755075 -7.5625 5.8125 C-5 4 -5 4 -3 4 C-3 3.34 -3 2.68 -3 2 C-2.01 1.34 -1.02 0.68 0 0 Z " fill="#385E51" transform="translate(312,334)"/>
<path d="M0 0 C0.598125 0.226875 1.19625 0.45375 1.8125 0.6875 C1.8125 2.0075 1.8125 3.3275 1.8125 4.6875 C0.28125 6.171875 0.28125 6.171875 -1.6875 7.4375 C-2.3371875 7.86546875 -2.986875 8.2934375 -3.65625 8.734375 C-4.1615625 9.04890625 -4.666875 9.3634375 -5.1875 9.6875 C-5.8475 9.3575 -6.5075 9.0275 -7.1875 8.6875 C-4.49237805 -0.64176829 -4.49237805 -0.64176829 0 0 Z " fill="#385E54" transform="translate(283.1875,201.3125)"/>
<path d="M0 0 C0.99 0.33 1.98 0.66 3 1 C2.55269531 1.36351562 2.10539062 1.72703125 1.64453125 2.1015625 C-5.55210273 8.01701315 -5.55210273 8.01701315 -10 16 C-10.66 16 -11.32 16 -12 16 C-11.52207339 11.33811939 -9.72323415 9.12819266 -6.5625 5.75 C-5.75941406 4.87859375 -4.95632813 4.0071875 -4.12890625 3.109375 C-2 1 -2 1 0 0 Z " fill="#39594A" transform="translate(307,326)"/>
<path d="M0 0 C2.20996573 3.3149486 3.30414829 6.6207504 4.5 10.375 C6.18504838 15.64550333 6.18504838 15.64550333 8.21875 20.7890625 C9 23 9 23 8 26 C4.23993925 17.53986331 0.70255115 9.30880278 0 0 Z " fill="#90B3A1" transform="translate(46,313)"/>
<path d="M0 0 C2.2421875 -0.36328125 2.2421875 -0.36328125 4.875 -0.3125 C6.17050781 -0.30669922 6.17050781 -0.30669922 7.4921875 -0.30078125 C10.0852226 0.0102214 11.75999753 0.69246367 14 2 C13.67 2.66 13.34 3.32 13 4 C8.05 3.67 3.1 3.34 -2 3 C-1.34 2.01 -0.68 1.02 0 0 Z " fill="#20332E" transform="translate(349,167)"/>
<path d="M0 0 C-1.24735567 0.6509259 -2.49801832 1.29551669 -3.75 1.9375 C-4.44609375 2.29714844 -5.1421875 2.65679687 -5.859375 3.02734375 C-10.37747267 5.08027499 -14.29059813 5.10842039 -19.25 5.0625 C-20.51328125 5.05347656 -21.7765625 5.04445313 -23.078125 5.03515625 C-24.04234375 5.02355469 -25.0065625 5.01195312 -26 5 C-26 4.34 -26 3.68 -26 3 C-24.76636719 3.06960938 -24.76636719 3.06960938 -23.5078125 3.140625 C-16.51085313 3.36685463 -11.33351363 2.8904544 -5.0234375 -0.22265625 C-3 -1 -3 -1 0 0 Z " fill="#99DFAA" transform="translate(281,322)"/>
<path d="M0 0 C-1.65 0.66 -3.3 1.32 -5 2 C-5 2.99 -5 3.98 -5 5 C-3.68 5 -2.36 5 -1 5 C-1.33 5.99 -1.66 6.98 -2 8 C-6.95 6.02 -6.95 6.02 -12 4 C-11 2 -11 2 -9.00390625 1.11328125 C-7.79541016 0.71689453 -7.79541016 0.71689453 -6.5625 0.3125 C-5.75941406 0.04050781 -4.95632812 -0.23148437 -4.12890625 -0.51171875 C-2 -1 -2 -1 0 0 Z " fill="#D4ECDE" transform="translate(165,444)"/>
<path d="M0 0 C7.59498961 -0.26442904 14.57359158 0.39118425 22 2 C21.01 2.33 20.02 2.66 19 3 C19 3.66 19 4.32 19 5 C13.25 3.125 13.25 3.125 11 2 C11 2.66 11 3.32 11 4 C10.29875 3.67 9.5975 3.34 8.875 3 C5.73996884 1.90955438 3.29436818 1.84677357 0 2 C0 1.34 0 0.68 0 0 Z " fill="#729B83" transform="translate(219,471)"/>
<path d="M0 0 C9.3312507 6.59076202 9.3312507 6.59076202 12 11 C11.75 13.3125 11.75 13.3125 11 15 C10.896875 14.360625 10.79375 13.72125 10.6875 13.0625 C10.460625 12.381875 10.23375 11.70125 10 11 C9.01 10.67 8.02 10.34 7 10 C4.3125 7.5625 4.3125 7.5625 2 5 C2 4.34 2 3.68 2 3 C1.01 2.67 0.02 2.34 -1 2 C-0.67 1.34 -0.34 0.68 0 0 Z " fill="#3C5D51" transform="translate(222,326)"/>
<path d="M0 0 C0.94875 0.825 1.8975 1.65 2.875 2.5 C7.48450321 6.45641138 12.24034752 10.22675437 17 14 C16.67 14.66 16.34 15.32 16 16 C14.26797907 14.60770997 12.53951516 13.21099444 10.8125 11.8125 C9.84957031 11.03519531 8.88664062 10.25789063 7.89453125 9.45703125 C5.10150303 7.08616114 2.47978083 4.69738499 0 2 C0 1.34 0 0.68 0 0 Z " fill="#3D6550" transform="translate(313,397)"/>
<path d="M0 0 C2.6875 -0.3125 2.6875 -0.3125 6 0 C8.6875 2.25 8.6875 2.25 11 5 C11.61875 5.70125 12.2375 6.4025 12.875 7.125 C13.431875 8.053125 13.431875 8.053125 14 9 C13.67 9.99 13.34 10.98 13 12 C11.99106869 10.90398831 10.99311775 9.79786082 10 8.6875 C9.443125 8.07261719 8.88625 7.45773438 8.3125 6.82421875 C7 5 7 5 7 2 C4.36 2 1.72 2 -1 2 C-0.67 1.34 -0.34 0.68 0 0 Z " fill="#202A2C" transform="translate(240,187)"/>
<path d="M0 0 C12.66970387 1.92710706 12.66970387 1.92710706 18 4 C14.87819599 4.96661363 12.47916205 4.98988909 9.25 4.5625 C8.05117187 4.40974609 8.05117187 4.40974609 6.828125 4.25390625 C6.22484375 4.17011719 5.6215625 4.08632813 5 4 C5 3.34 5 2.68 5 2 C3.35 1.67 1.7 1.34 0 1 C0 0.67 0 0.34 0 0 Z " fill="#6B957F" transform="translate(200,466)"/>
<path d="M0 0 C0.33 0 0.66 0 1 0 C0.84653748 7.05927607 0.1246795 11.00672254 -5 16 C-5.66 15.67 -6.32 15.34 -7 15 C-6.401875 14.01 -5.80375 13.02 -5.1875 12 C-2.96690376 8.1356884 -1.47402877 4.20098198 0 0 Z " fill="#DBEDEC" transform="translate(237,381)"/>
<path d="M0 0 C0.721875 0.103125 1.44375 0.20625 2.1875 0.3125 C1.13875002 2.93437494 0.53818687 4.10621361 -1.9375 5.5625 C-2.55625 5.81 -3.175 6.0575 -3.8125 6.3125 C-3.8125 5.6525 -3.8125 4.9925 -3.8125 4.3125 C-5.1325 4.6425 -6.4525 4.9725 -7.8125 5.3125 C-3.50480769 0.38942308 -3.50480769 0.38942308 0 0 Z " fill="#E0EBEE" transform="translate(288.8125,203.6875)"/>
<path d="M0 0 C5.445 1.485 5.445 1.485 11 3 C11 4.32 11 5.64 11 7 C9.68 7.33 8.36 7.66 7 8 C6.67 7.34 6.34 6.68 6 6 C6.99 6 7.98 6 9 6 C9 5.34 9 4.68 9 4 C6.36 3.67 3.72 3.34 1 3 C0.67 2.01 0.34 1.02 0 0 Z " fill="#D8F0E0" transform="translate(360,442)"/>
<path d="M0 0 C0.66 0 1.32 0 2 0 C2 0.66 2 1.32 2 2 C2.85851562 2.38285156 2.85851562 2.38285156 3.734375 2.7734375 C6.24173733 4.13087159 8.1330456 5.71974104 10.25 7.625 C10.95640625 8.25664062 11.6628125 8.88828125 12.390625 9.5390625 C12.92171875 10.02117187 13.4528125 10.50328125 14 11 C13.01 11.33 12.02 11.66 11 12 C9.34786411 10.56974806 7.70347411 9.13054455 6.0625 7.6875 C5.14597656 6.88699219 4.22945313 6.08648437 3.28515625 5.26171875 C1 3 1 3 0 0 Z " fill="#456655" transform="translate(307,407)"/>
<path d="M0 0 C-0.54087318 3.78611227 -2.11722332 5.55400767 -5 8 C-5.66 8 -6.32 8 -7 8 C-6.40138258 5.64828869 -5.73075648 3.3140622 -5 1 C-3 0 -3 0 0 0 Z " fill="#77A98C" transform="translate(462,359)"/>
<path d="M0 0 C0.33 0 0.66 0 1 0 C1.3690205 9.41002278 1.3690205 9.41002278 -1 14 C-1.33 14 -1.66 14 -2 14 C-2 10.7 -2 7.4 -2 4 C-1.34 4 -0.68 4 0 4 C0 2.68 0 1.36 0 0 Z " fill="#556E6B" transform="translate(380,187)"/>
<path d="M0 0 C-0.33 0.99 -0.66 1.98 -1 3 C-3.0625 3.6875 -3.0625 3.6875 -5 4 C-5 4.66 -5 5.32 -5 6 C-6.98 6.33 -8.96 6.66 -11 7 C-11 6.34 -11 5.68 -11 5 C-9.54462432 4.16151196 -8.08559627 3.32936066 -6.625 2.5 C-5.81289062 2.0359375 -5.00078125 1.571875 -4.1640625 1.09375 C-2 0 -2 0 0 0 Z " fill="#CFEAD4" transform="translate(192,431)"/>
<path d="M0 0 C0.66 0.33 1.32 0.66 2 1 C-2.61176471 7.09411765 -2.61176471 7.09411765 -6 9 C-8.125 8.5703125 -8.125 8.5703125 -10 8 C-9.44570312 7.59007812 -8.89140625 7.18015625 -8.3203125 6.7578125 C-7.59585938 6.21898437 -6.87140625 5.68015625 -6.125 5.125 C-5.04605469 4.32449219 -5.04605469 4.32449219 -3.9453125 3.5078125 C-1.91747368 2.00126838 -1.91747368 2.00126838 0 0 Z " fill="#DBF1E4" transform="translate(216,413)"/>
<path d="M0 0 C1.32 0.33 2.64 0.66 4 1 C3.04270084 2.12588014 2.08412105 3.2506715 1.125 4.375 C0.59132812 5.00148438 0.05765625 5.62796875 -0.4921875 6.2734375 C-1.61432007 7.55836651 -2.79371975 8.79371975 -4 10 C-3.5205537 5.78087253 -2.83374881 3.20336822 0 0 Z " fill="#88D49A" transform="translate(225,266)"/>
<path d="M0 0 C0.66 0 1.32 0 2 0 C3.7265625 1.96875 3.7265625 1.96875 5.625 4.5 C6.25664062 5.3353125 6.88828125 6.170625 7.5390625 7.03125 C8.02117187 7.6809375 8.50328125 8.330625 9 9 C8.34 9.66 7.68 10.32 7 11 C5.82750647 9.54634731 4.66216184 8.08692581 3.5 6.625 C2.52546875 5.40683594 2.52546875 5.40683594 1.53125 4.1640625 C0 2 0 2 0 0 Z " fill="#3A4949" transform="translate(148,202)"/>
<path d="M0 0 C2 2 2 2 2 4 C2.99 5.485 2.99 5.485 4 7 C2.02 7 0.04 7 -2 7 C-2.6875 5.1875 -2.6875 5.1875 -3 3 C-1.5625 1.25 -1.5625 1.25 0 0 Z " fill="#ECF4E8" transform="translate(404,403)"/>
<path d="M0 0 C0.66 0.33 1.32 0.66 2 1 C1.34 2.65 0.68 4.3 0 6 C-2.31 6.33 -4.62 6.66 -7 7 C-4.66666667 4.66666667 -2.33333333 2.33333333 0 0 Z " fill="#DCE3E6" transform="translate(193,211)"/>
<path d="M0 0 C0.66 0 1.32 0 2 0 C2.433125 0.9590625 2.433125 0.9590625 2.875 1.9375 C3.82823451 4.15206079 3.82823451 4.15206079 6 5 C6.6328125 6.84765625 6.6328125 6.84765625 7.125 9.0625 C7.29257812 9.79597656 7.46015625 10.52945313 7.6328125 11.28515625 C7.75398438 11.85105469 7.87515625 12.41695312 8 13 C5.27324841 10.59310197 3.88033404 8.07528977 2.3125 4.8125 C1.65701172 3.46091797 1.65701172 3.46091797 0.98828125 2.08203125 C0.66214844 1.39496094 0.33601563 0.70789063 0 0 Z " fill="#ACBDAD" transform="translate(452,130)"/>
<path d="M0 0 C-0.33 0.99 -0.66 1.98 -1 3 C-4.75907641 4.62323754 -7.92086213 5.23994929 -12 5 C-8.24532309 1.94063363 -4.91886939 0 0 0 Z " fill="#7EA58B" transform="translate(371,449)"/>
<path d="M0 0 C1.41702513 0.14230808 2.8336096 0.28900746 4.25 0.4375 C5.43335938 0.55931641 5.43335938 0.55931641 6.640625 0.68359375 C8.82364639 0.97634993 10.8773182 1.42064419 13 2 C10 4 10 4 7.7734375 3.828125 C6.98195313 3.63734375 6.19046875 3.4465625 5.375 3.25 C4.57835937 3.06953125 3.78171875 2.8890625 2.9609375 2.703125 C1 2 1 2 0 0 Z " fill="#DCEEE6" transform="translate(378,433)"/>
<path d="M0 0 C3.63 0 7.26 0 11 0 C10.67 0.99 10.34 1.98 10 3 C6.6875 3.1875 6.6875 3.1875 3 3 C2.01 2.01 1.02 1.02 0 0 Z " fill="#31533C" transform="translate(365,137)"/>
<path d="M0 0 C1.65322266 0.01740234 1.65322266 0.01740234 3.33984375 0.03515625 C4.99693359 0.04869141 4.99693359 0.04869141 6.6875 0.0625 C7.54214844 0.07410156 8.39679688 0.08570313 9.27734375 0.09765625 C9.27734375 0.42765625 9.27734375 0.75765625 9.27734375 1.09765625 C8.18421875 1.22140625 7.09109375 1.34515625 5.96484375 1.47265625 C2.20352573 1.85230426 2.20352573 1.85230426 -0.72265625 4.09765625 C-0.72265625 3.43765625 -0.72265625 2.77765625 -0.72265625 2.09765625 C-1.71265625 1.76765625 -2.70265625 1.43765625 -3.72265625 1.09765625 C-2.72265625 0.09765625 -2.72265625 0.09765625 0 0 Z " fill="#6F9880" transform="translate(271.72265625,473.90234375)"/>
<path d="M0 0 C1 4 1 4 1 6 C1.66 6.33 2.32 6.66 3 7 C1 9 1 9 -3 11 C-2.01 7.37 -1.02 3.74 0 0 Z " fill="#C9DEDF" transform="translate(199,196)"/>
<path d="M0 0 C0.33 0 0.66 0 1 0 C1.45732667 5.71658336 0.52273754 8.48649253 -3 13 C-3.66 12.34 -4.32 11.68 -5 11 C-3.625 8.5 -3.625 8.5 -2 6 C-1.34 6 -0.68 6 0 6 C0 4.02 0 2.04 0 0 Z " fill="#526A6C" transform="translate(291,191)"/>
<path d="M0 0 C0.99 0.33 1.98 0.66 3 1 C0.69 3.31 -1.62 5.62 -4 8 C-4.33 7.01 -4.66 6.02 -5 5 C-3.35 3.35 -1.7 1.7 0 0 Z " fill="#21362F" transform="translate(157,172)"/>
<path d="M0 0 C2.97 0 5.94 0 9 0 C7.515 1.485 7.515 1.485 6 3 C2.3125 2.6875 2.3125 2.6875 -1 2 C-0.67 1.34 -0.34 0.68 0 0 Z " fill="#1B2F2A" transform="translate(165,168)"/>
<path d="M0 0 C3.63 0.33 7.26 0.66 11 1 C11 1.99 11 2.98 11 4 C7.37 3.01 3.74 2.02 0 1 C0 0.67 0 0.34 0 0 Z " fill="#D0E7D9" transform="translate(181,459)"/>
<path d="M0 0 C0.66 0.33 1.32 0.66 2 1 C-1.75 6.875 -1.75 6.875 -4 8 C-3.50168276 4.31245243 -2.89932357 2.39509338 0 0 Z " fill="#9EC4AC" transform="translate(100,217)"/>
<path d="M0 0 C0.66 0 1.32 0 2 0 C1.814375 0.598125 1.62875 1.19625 1.4375 1.8125 C0.77906313 4.16408762 0.77906313 4.16408762 2 7 C1.34 7 0.68 7 0 7 C-0.33 7.66 -0.66 8.32 -1 9 C-1 8.01 -1 7.02 -1 6 C-1.66 5.67 -2.32 5.34 -3 5 C-1.625 2.5 -1.625 2.5 0 0 Z " fill="#E7EAEE" transform="translate(376,207)"/>
<path d="M0 0 C0.66 0.33 1.32 0.66 2 1 C1.01 1.66 0.02 2.32 -1 3 C-0.67 2.01 -0.34 1.02 0 0 Z M-3 3 C-2.34 3.33 -1.68 3.66 -1 4 C-2.28965176 5.37562854 -3.62689293 6.70766393 -5 8 C-5.66 8 -6.32 8 -7 8 C-5.25 4.125 -5.25 4.125 -3 3 Z " fill="#B7D2C6" transform="translate(392,210)"/>
<path d="M0 0 C0.33 1.32 0.66 2.64 1 4 C-1.31 5.65 -3.62 7.3 -6 9 C-4.47291037 5.56404834 -2.40072955 2.88087546 0 0 Z " fill="#E6F6F0" transform="translate(224,405)"/>
<path d="M0 0 C3.40312738 1.05875074 6.01353231 2.00902154 9 4 C9 4.66 9 5.32 9 6 C5.06326356 4.68775452 2.77280706 3.08089673 0 0 Z " fill="#2D4D3E" transform="translate(213,322)"/>
<path d="M0 0 C-3.96 1.98 -3.96 1.98 -8 4 C-8 3.01 -8 2.02 -8 1 C-3.375 -1.125 -3.375 -1.125 0 0 Z " fill="#A0E5AF" transform="translate(281,322)"/>
<path d="M0 0 C0.66 0 1.32 0 2 0 C1.34 2.64 0.68 5.28 0 8 C-0.66 7.34 -1.32 6.68 -2 6 C-1.44444444 1.44444444 -1.44444444 1.44444444 0 0 Z " fill="#AAC3AD" transform="translate(47,186)"/>
<path d="M0 0 C1.8125 0.125 1.8125 0.125 4 1 C5.75 4.0625 5.75 4.0625 7 7 C4.50638429 5.79618552 2.31856917 4.54571278 0 3 C0 2.01 0 1.02 0 0 Z " fill="#59906F" transform="translate(141,438)"/>
</svg>
